# xmcd CD database file
#
# Track frame offsets:
#	150
#	12801
#	26342
#	39854
#	51433
#	64627
#	77942
#	92590
#	104743
#	119073
#	132915
#	145201
#	157795
#	171936
#	185557
#
# Disc length: 2652 seconds
#
# Revision: 0
# Processed by: cddbd v1.5.2PL0 Copyright (c) Steve Scherf et al.
# Submitted via: CDex 1.70beta2
#
DISCID=c70a5a0f
DTITLE=John Lee Hooker - Hobo Blues
DYEAR=2005
DGENRE=Blues
TTITLE0=Huckle Up Baby
TTITLE1=Wandering Blues
TTITLE2=Crawlin' King Snake
TTITLE3=Walkin' the Boogie
TTITLE4=Hoogie Boogie
TTITLE5=Union Station Blues
TTITLE6=Don't Go Baby
TTITLE7=Mad Man Blues
TTITLE8=Grinder Man
TTITLE9=Louise
TTITLE10=High Priced Woman
TTITLE11=Leave My Wife Alone
TTITLE12=Boogie Chillen
TTITLE13=Hobo Blues
TTITLE14=Ground Hog Blues
EXTD=YEAR: 2005
EXTT0=
EXTT1=
EXTT2=
EXTT3=
EXTT4=
EXTT5=
EXTT6=
EXTT7=
EXTT8=
EXTT9=
EXTT10=
EXTT11=
EXTT12=
EXTT13=
EXTT14=
PLAYORDER=
